<?xml version="1.0" encoding="UTF-8"?>
<svg version="1.1" viewBox="0 0 1600 1600" width="1280" height="1280" xmlns="http://www.w3.org/2000/svg">
<path transform="translate(0)" d="m0 0h1600v1600h-1600v-1600z" fill="#000002"/>
<path transform="translate(625 369)" d="m0 0c1.2 0.01 2.41 0.02 3.65 0.03 1.95 0.01 1.95 0.01 3.95 0.02 1.38 0.02 2.76 0.03 4.14 0.05 1.38 0.01 2.77 0.02 4.16 0.03 3.4 0.02 6.81 0.06 10.2 0.1 1.59 4.21 2.25 7.7 2.26 12.2 0.01 1.23 0.02 2.46 0.03 3.73-0.01 1.36-0.01 2.72-0.01 4.08 0 1.44 0.01 2.89 0.02 4.34 0.01 3.98 0.02 7.96 0.02 11.9 0 4.29 0.02 8.58 0.03 12.9 0.02 7.44 0.04 14.9 0.05 22.3 0.01 10.8 0.04 21.5 0.07 32.2 0.04 17.4 0.08 34.9 0.11 52.3 0.03 16.9 0.06 33.9 0.1 50.8 0.01 1.04 0.01 2.09 0.01 3.16 0.01 5.24 0.03 10.5 0.04 15.7 0.1 43.4 0.19 86.9 0.27 130 3.68 1.22 7.07 1.13 10.9 1.12h2.47c2.77 0.01 5.53 0 8.29 0h5.97c5.49 0 11 0 16.5-0.01h17.7c10.9 0 21.8 0 32.8-0.01 10.1 0 20.2-0.01 30.2-0.01h2.02 10.2c24 0 48.1-0.01 72.1-0.02 23.4-0.01 46.7-0.01 70.1-0.02h2.18 21.7c14.7 0 29.4-0.01 44.2-0.01h2.05c45.2-0.01 90.4-0.03 136-0.04v-2.28c-0.05-44.4-0.08-88.9-0.1-133 0-5.33-0.01-10.7-0.01-16v-3.21c-0.01-17.2-0.03-34.4-0.04-51.6-0.02-17.6-0.03-35.3-0.04-52.9 0-10.9-0.01-21.8-0.02-32.7-0.02-7.46-0.02-14.9-0.02-22.4 0.01-4.31 0-8.62-0.01-12.9-0.01-3.94-0.01-7.88 0-11.8 0-1.43 0-2.86-0.01-4.29-0.01-1.93 0-3.87 0-5.8v-3.27c0.25-2.52 0.25-2.52 2.25-4.52 2.97-0.25 2.97-0.25 6.72-0.23h2.01c1.39 0 2.79 0.01 4.18 0.02 2.15 0.02 4.29 0.02 6.44 0.02 10.5 0.04 10.5 0.04 11.6 1.19 0.1 1.66 0.13 3.32 0.13 4.98v3.3c0 1.82 0 1.82-0.01 3.68 0.01 1.28 0.01 2.56 0.01 3.88 0 3.59 0 7.18-0.01 10.8v11.7c0.01 6.83 0 13.7 0 20.5-0.01 10.2-0.01 20.3-0.01 30.5 0.01 17.1 0 34.2 0 51.2-0.01 16.9-0.01 33.8-0.01 50.8v3.18c0 5.34-0.01 10.7-0.01 16 0 37.8 0 75.7-0.01 113-0.01 36.8-0.02 73.5-0.02 110v3.43c-0.01 11.4-0.01 22.7-0.01 34.1 0 23.2 0 46.3-0.01 69.5v3.23c-0.01 71.2-0.02 142-0.04 214-4.22 0.19-8.43 0.37-12.6 0.53-1.44 0.06-2.87 0.12-4.31 0.19-2.06 0.09-4.12 0.18-6.18 0.25-1.24 0.06-2.49 0.11-3.76 0.16-3.1-0.13-3.1-0.13-6.1-2.13-0.37-2.13-0.37-2.13-0.37-4.83 0-1.02-0.01-2.05-0.01-3.1 0.01-1.7 0.01-1.7 0.03-3.44-0.01-1.2-0.01-2.4-0.01-3.64 0-3.34 0.01-6.68 0.03-10 0.01-3.6 0.01-7.21 0.01-10.8 0-6.27 0.01-12.5 0.03-18.8 0.03-9.13 0.04-18.3 0.05-27.4 0.01-14.9 0.04-29.8 0.07-44.7 0.03-14.3 0.06-28.6 0.08-43 0-1.31 0-1.31 0.01-2.64 0.01-9.62 0.02-19.2 0.04-28.9v-2.6c0-3.44 0.01-6.88 0.01-10.3 0.01-9.9 0.03-19.8 0.05-29.7 0.1-42.7-0.23-85.4-1.02-128-59.5 0.1-119 0.21-178 0.33-7.02 0.01-14 0.03-21.1 0.04h-2.12c-22.6 0.05-45.3 0.09-67.9 0.13-23.9 0.04-47.9 0.08-71.8 0.13-14.3 0.03-28.7 0.06-43 0.08-9.83 0.02-19.7 0.04-29.5 0.06-5.67 0.01-11.3 0.02-17 0.03l-15.6 0.03c-1.87 0.01-3.75 0.01-5.62 0.01-2.56 0-5.13 0.01-7.69 0.02h-2.16c-7.39 0.03-14.6 0.64-22 1.14l-1 371h-32c-1.67-1.67-1.12-3.68-1.13-5.97v-3.29-3.67-3.87c-0.01-3.57-0.01-7.15 0-10.7 0-3.88-0.01-7.75-0.01-11.6 0-6.81-0.01-13.6-0.01-20.4 0.01-10.1 0-20.2 0-30.4-0.01-19.1-0.02-38.3-0.02-57.4v-44.3-12.7c0-1.06-0.01-2.12-0.01-3.2 0-29.7-0.01-59.4 0-89.1v-3.4-17-3.42-6.84c0-35.5-0.01-71-0.02-107-0.02-39.8-0.03-79.7-0.03-120v-12.7-3.17c0-16.9 0-33.7-0.01-50.6-0.01-16.9-0.01-33.9-0.01-50.8 0.01-10.1 0.01-20.1 0-30.2-0.01-6.72-0.01-13.4 0-20.2v-11.5c-0.01-4.12-0.01-8.24 0-12.4 0-1.21-0.01-2.42-0.01-3.66 0-1.09 0.01-2.18 0.01-3.3v-2.86c0.4-3.61 1.63-4.18 5.14-4.46z" fill="#F84D0F"/>
<path transform="translate(277 369)" d="m0 0c1.62-0.01 1.62-0.01 3.28-0.02 1.79 0.02 1.79 0.02 3.62 0.03 1.26 0 2.53-0.01 3.83-0.01 3.51-0.01 7.03 0.01 10.6 0.02 3.79 0.01 7.58 0.01 11.4 0.01 6.56 0 13.1 0.01 19.7 0.02 9.49 0.03 19 0.03 28.5 0.04 15.4 0 30.8 0.02 46.2 0.05 15 0.03 29.9 0.05 44.9 0.06 0.92 0.01 1.85 0.01 2.8 0.01 4.62 0 9.25 0 13.9 0.01 38.4 0.03 76.8 0.08 115 0.15v2l2 1-1 23-26 1v732h-32c-3.27-3.26-2.12-12.4-2.13-16.8v-2.49-2.73c0-3 0.01-6.01 0.01-9.02v-6.55c0-6 0.01-12 0.01-18 0.01-6.48 0.01-13 0.01-19.4 0-11.3 0.01-22.5 0.02-33.8 0.01-16.5 0.02-32.9 0.02-49.4 0-7.72 0.01-15.4 0.01-23.2v-2.35c0.01-18.4 0.02-36.9 0.02-55.4 0.01-1.22 0.01-1.22 0.01-2.45 0-15.4 0.01-30.8 0.02-46.3 0.02-45.4 0.05-90.7 0.06-136v-11.5c0.02-86.2-0.12-172-1.06-296-2.76-0.92-4.35-1.12-7.19-1.12h-2.6c-0.94 0-1.88 0.01-2.85 0.01h-3.03c-3.37 0.01-6.74 0.02-10.1 0.03-2.41 0-4.82 0-7.23 0.01-5.19 0-10.4 0.01-15.6 0.02-7.51 0.02-15 0.03-22.5 0.04-12.2 0.01-24.4 0.03-36.6 0.04-0.73 0-1.46 0.01-2.21 0.01-10.4 0.01-20.7 0.03-31.1 0.05-0.73 0-1.46 0-2.21 0.01h-2.21c-12.2 0.02-24.3 0.04-36.4 0.05-7.49 0-15 0.01-22.5 0.04-5.74 0.01-11.5 0.02-17.2 0.02-2.36 0-4.71 0-7.07 0.01-3.21 0.02-6.42 0.02-9.63 0.01-0.94 0.01-1.88 0.02-2.85 0.02-0.86 0-1.72 0-2.6-0.01-0.75 0-1.49 0.01-2.25 0.01-2.37-0.29-4-1.08-6.06-2.25-0.09-3.6-0.15-7.21-0.19-10.8-0.03-1.03-0.05-2.05-0.08-3.11-0.01-0.98-0.02-1.96-0.03-2.98-0.01-0.9-0.03-1.81-0.05-2.74 0.74-5.1 3.87-5.74 8.54-5.73z" fill="#B12527"/>
<path transform="translate(691 369)" d="m0 0c1.48-0.01 1.48-0.01 2.99-0.02 1.08 0.01 2.16 0.02 3.28 0.03 1.14 0 2.28 0 3.45-0.01 3.78 0 7.56 0.02 11.3 0.04 2.61 0 5.23 0 7.85 0.01 5.48 0 11 0.01 16.4 0.04 7.05 0.03 14.1 0.04 21.2 0.04 5.41 0 10.8 0.01 16.2 0.03 2.6 0 5.2 0.01 7.8 0.01 3.63 0.01 7.25 0.02 10.9 0.04h3.29c0.98 0.01 1.96 0.01 2.97 0.02 1.29 0 1.29 0 2.6 0.01 1.94 0.13 1.94 0.13 2.94 1.13 0.11 2.51 0.14 4.99 0.13 7.5 0 0.68 0.01 1.36 0.01 2.07-0.01 5.2-0.5 10.3-1.14 15.4-26.6 0.92-53.2 1.13-79.9 1.18-2.62 0.01-5.25 0.01-7.87 0.03-4.18 0.01-8.36 0.02-12.5 0.02-1.57 0-3.13 0-4.7 0.01-2.16 0.01-4.31 0.01-6.47 0h-3.69c-2.85-0.24-2.85-0.24-4.85-2.24-0.45-3.63-0.32-7.29-0.31-10.9-0.01-1.02-0.03-2.03-0.05-3.08v-2.95c0-0.89-0.01-1.78-0.01-2.7 0.78-4.85 3.65-5.71 8.17-5.7z" fill="#B12528"/>
<path transform="translate(1099,1226)" d="m0 0c4.29 2.92 6.9 5.86 8 11 0.19 4.81 0.16 8.7-3.12 12.4-0.93 0.8-0.93 0.8-1.88 1.62-0.14 2.03-0.14 2.03 1 4 1.02 0.99 1.02 0.99 2.06 2 3.05 4.72 2.96 9.55 1.94 15-2.08 3.01-4.75 4.38-8 6-4.32 0.4-8.66 0.51-13 0.69-1.21 0.06-2.43 0.12-3.68 0.18-1.16 0.05-2.31 0.09-3.51 0.14-1.6 0.07-1.6 0.07-3.23 0.14-2.58-0.15-2.58-0.15-4.58-2.15-0.25-2.13-0.25-2.13-0.24-4.79-0.01-0.99-0.01-1.98-0.01-3.01 0-1.08 0.01-2.15 0.02-3.26v-3.34c0-2.34 0.01-4.67 0.02-7 0.02-3.59 0.02-7.17 0.02-10.8 0.01-2.26 0.02-4.52 0.02-6.79 0-1.07 0-2.15 0.01-3.26 0-1 0.01-1.99 0.01-3.01 0.01-0.88 0.01-1.76 0.02-2.66 0.13-2.13 0.13-2.13 1.13-4.13 8.12-2.71 18.9-1.28 27 1z" fill="#EEC31D"/>
<path transform="translate(634,1331)" d="m0 0c4.56 2.28 6.72 4.5 9 9 0.86 4.91 1.2 9.92-1.35 14.3-1.46 1.69-2.94 3.21-4.65 4.66 0.62 0.29 1.25 0.58 1.89 0.88 3.06 1.63 3.79 2.88 5.11 6.12 0.74 5.37 1.03 9.52-2.12 14.1-6.46 4.35-13.1 4.4-20.6 4.69-1.05 0.06-2.11 0.11-3.19 0.17-1.51 0.06-1.51 0.06-3.04 0.13-0.92 0.04-1.83 0.08-2.78 0.12-2.24-0.17-2.24-0.17-4.24-2.17-0.24-2.21-0.24-2.21-0.23-5v-3.15c0.02-1.7 0.02-1.7 0.03-3.42 0.01-1.15 0.01-2.3 0.01-3.49 0.01-3.69 0.04-7.38 0.07-11.1 0.01-2.5 0.01-5 0.02-7.49 0.02-6.13 0.06-12.3 0.1-18.4 6.55-3.27 18.9-1.4 26 0z" fill="#EEC31D"/>
<path transform="translate(802,1224)" d="m0 0c4.4 1.47 5.38 4.9 7.38 8.81 0.39 0.77 0.79 1.55 1.21 2.34 3.68 7.2 6.75 14.6 9.68 22.1 0.43 1.07 0.85 2.14 1.29 3.24 0.56 1.44 0.56 1.44 1.13 2.91 1.41 2.79 3.06 4.44 5.31 6.59 0.49-1.08 0.99-2.16 1.5-3.27 1.84-4.03 3.69-8.07 5.54-12.1l2.4-5.22 3.45-7.53c0.35-0.77 0.7-1.54 1.06-2.33 1.01-2.19 2.03-4.37 3.05-6.55 0.34-0.76 0.69-1.52 1.04-2.3 0.51-1.08 0.51-1.08 1.03-2.19 0.3-0.65 0.6-1.3 0.91-1.97 1.02-1.54 1.02-1.54 4.02-2.54 2.85 2.85 2.41 4.98 2.63 8.96 0.04 0.71 0.09 1.41 0.13 2.13 0.13 2.28 0.25 4.56 0.36 6.85 0.09 1.55 0.18 3.11 0.26 4.66 0.58 10.8 0.88 21.6 0.62 32.4l-5-1c-1.64-12.3-2.51-24.6-3-37h-2c-0.11 0.69-0.22 1.39-0.34 2.11-2.73 12-9.87 25.7-16.7 35.9-3.64-0.93-4.82-1.72-6.89-4.92-0.61-1.27-1.21-2.55-1.8-3.83-0.32-0.69-0.65-1.37-0.99-2.08-1.13-2.38-2.23-4.77-3.32-7.17-0.44-0.96-0.88-1.92-1.34-2.91-2.92-6.35-5.79-12.7-8.66-19.1-0.99 13.2-1.98 26.4-3 40l-5-1c-0.79-3.4-1.08-6.37-0.87-9.85 0.05-0.93 0.11-1.87 0.16-2.83 0.07-1 0.13-1.99 0.2-3.02 0.09-1.55 0.09-1.55 0.19-3.12 0.14-2.18 0.27-4.35 0.42-6.53 0.21-3.34 0.41-6.67 0.61-10 0.13-2.11 0.27-4.23 0.4-6.34 0.06-1 0.12-2 0.18-3.04 0.1-1.38 0.1-1.38 0.19-2.8 0.05-0.81 0.11-1.63 0.16-2.47 0.36-1.99 0.36-1.99 2.36-3.99z" fill="#EEC31D"/>
<path transform="translate(962 1334)" d="m0 0c5.45 5.38 8.72 11.8 9.12 19.4 0.07 0.72 0.13 1.45 0.19 2.2 0.41 7.93-0.77 16.9-6.14 23-4.82 3.93-10.2 6.55-16 8.76 0.27 2.93 0.27 2.93 1 6 3.75 2.49 6.6 2.79 11 2 2.06-1.84 2.06-1.84 3-4 1.33 0.33 2.64 0.66 4 1-0.56 3.26-1.41 4.91-4 7-4.99 1.66-11 2.24-15.9 0.2-3.32-2.43-4.36-4.9-5.3-8.7-0.85-3.08-1.33-4.2-3.98-6.05-1.71-0.82-3.45-1.58-5.2-2.28-6.71-3.05-9.07-7.23-11.6-13.9-2.62-8.99-1.16-16.2 2.56-24.6 3.72-6.75 8.48-10.8 15.6-13.5 7.39-2.07 15.6-1.43 21.7 3.39zm-25.8 5.14c-6.29 6.9-9.49 13.7-9.25 23.1 0.46 5.05 1.46 9.21 4.87 13.1 5.8 4.64 11.6 4.74 18.8 4.7 5.49-0.93 8.56-3.28 11.9-7.66 3.91-6.81 3.56-15.3 2.68-22.9-1.73-5.5-4.87-10.2-10-13-6.5-1.68-13.7-1.91-18.9 2.7z" fill="#EEC31D"/>
<path transform="translate(748,1224)" d="m0 0c3.8 4.19 5.6 8.42 7.56 13.6 0.69 1.78 1.38 3.55 2.07 5.32 0.37 0.96 0.74 1.92 1.13 2.91 1.37 3.47 2.78 6.92 4.2 10.4 0.76 1.83 0.76 1.83 1.53 3.7 1 2.41 2 4.83 3 7.24 0.46 1.11 0.92 2.21 1.39 3.35 0.4 0.99 0.81 1.98 1.24 3 0.88 2.5 0.88 2.5 0.88 5.5-2.26-0.09-2.26-0.09-5-1-1.54-2.24-2.66-4.14-3.81-6.56-1.05-2.13-2.11-4.25-3.19-6.44h-23l-4 9c-1.5 3.06-1.5 3.06-3 5h-4c-1.2-3.6-0.75-4.25 0.7-7.63 0.4-0.94 0.8-1.88 1.21-2.85 0.44-1.02 0.88-2.03 1.34-3.08 0.92-2.16 1.85-4.32 2.77-6.48 0.49-1.13 0.97-2.26 1.47-3.43 1.54-3.6 3.04-7.21 4.52-10.8 0.49-1.18 0.98-2.36 1.48-3.58 0.96-2.3 1.9-4.61 2.84-6.92 0.44-1.04 0.87-2.08 1.32-3.16 0.57-1.39 0.57-1.39 1.16-2.81 1.19-2.23 1.19-2.23 4.19-4.23z" fill="#EEC31D"/>
<path transform="translate(712 1334)" d="m0 0c7.32 7.44 9.3 15.2 9.62 25.4-0.13 8.07-1.44 12.9-7.12 18.8-6.72 5.99-13.2 7.05-22 6.94-7.01-0.5-12.3-4.15-17-9.21-4.77-6.58-5.63-14.2-4.59-22.1 2.04-9.63 6.45-16.1 14.5-21.7 8.27-4.81 18.9-4.25 26.5 1.8zm-27.1 6.06c-6.13 7.59-7.93 13.9-7.85 23.6 0.66 4.6 2.04 7.92 5.41 11.2 1.02 0.72 1.02 0.72 2.06 1.45 0.68 0.49 1.36 0.98 2.06 1.49 4.68 2.89 9.63 2.65 14.9 2.2 5.81-1.97 9.29-5.74 12.1-11.1 1.22-3.96 1.21-7.67 1.2-11.8 0.01-0.78 0.03-1.57 0.04-2.38 0.01-5.85-1.13-9.85-4.82-14.5-0.73-0.72-0.73-0.72-1.48-1.45-0.48-0.49-0.96-0.98-1.46-1.49-6.84-5.13-16.2-1.88-22.2 2.86z" fill="#EEC31D"/>
<path transform="translate(964,1224)" d="m0 0c1.26 2.53 1.12 4.26 1.11 7.09v3.22c0 1.15-0.01 2.3-0.01 3.48 0 1.17-0.01 2.35-0.01 3.56 0 3.76-0.01 7.52-0.03 11.3 0 2.55-0.01 5.09-0.01 7.64-0.01 6.25-0.03 12.5-0.05 18.7-2.97-0.49-2.97-0.49-6-1 0.01-0.91 0.02-1.81 0.04-2.75 0-1.21 0.01-2.43 0.02-3.69 0.01-1.19 0.03-2.39 0.04-3.62-0.11-4.36-0.55-8.62-1.1-12.9-3.35-0.23-6.71-0.43-10.1-0.62-0.95-0.07-1.89-0.13-2.86-0.2-0.92-0.05-1.85-0.1-2.8-0.16-0.85-0.05-1.69-0.1-2.56-0.16-3.5 0.08-3.5 0.08-9.72 2.14l-1 23c-5-1-5-1-6-2-0.1-1.55-0.13-3.11-0.13-4.67 0-1-0.01-1.99-0.01-3.02 0-1.08 0.01-2.16 0.01-3.27s0-2.21-0.01-3.35c0-2.34 0.01-4.68 0.01-7.02 0-3.59 0-7.18-0.01-10.8 0-2.27 0.01-4.53 0.01-6.8 0-1.08-0.01-2.16-0.01-3.28 0-0.99 0.01-1.99 0.01-3.02v-2.67c0.13-2.13 0.13-2.13 1.13-4.13l5 1 1 21 29 2c-0.12-7.11-0.12-7.11-0.27-14.2-0.01-0.89-0.02-1.77-0.02-2.68-0.02-0.91-0.03-1.82-0.05-2.75 0.34-2.36 0.34-2.36 1.73-4.18 1.61-1.18 1.61-1.18 3.61-1.18z" fill="#EDC21D"/>
<path transform="translate(1038,1224)" d="m0 0c1.57 3.15 1.18 6.52 1.2 9.97 0.01 0.8 0.01 1.6 0.02 2.42 0.01 1.69 0.02 3.38 0.02 5.07 0.01 2.57 0.04 5.13 0.07 7.69 0.12 18.4 0.12 18.4-4.96 25-0.85 0.66-0.85 0.66-1.73 1.34-0.56 0.46-1.12 0.93-1.71 1.41-4.28 2.44-9.02 2.28-13.8 2.34-1.77 0.04-1.77 0.04-3.59 0.08-5.25-0.5-9.23-2.49-12.7-6.45-0.48-0.52-0.96-1.04-1.45-1.58-4.41-7.82-3.58-17.3-3.51-26 0.02-2.29 0.02-4.57 0.02-6.86 0.04-11.2 0.04-11.2 1.19-13.5l5 1c0.01 0.98 0.03 1.97 0.04 2.98 0.06 3.68 0.14 7.37 0.22 11 0.04 1.59 0.06 3.18 0.09 4.76 0.06 12.4 0.06 12.4 3.65 24.2 4.68 3.87 9.7 4.61 15.7 4.31 3.42-0.46 5.6-1.19 8.34-3.31 1.92-5.22 2.29-9.93 2.31-15.4 0.02-1.61 0.05-3.21 0.07-4.82 0.03-2.5 0.06-5 0.08-7.51 0.02-2.43 0.06-4.86 0.1-7.3v-2.27c0.1-5.16 0.1-5.16 1.84-7.65 1.6-1 1.6-1 3.6-1z" fill="#EEC31D"/>
<path transform="translate(1e3 1330)" d="m0 0c2.12 0.38 2.12 0.38 4 1 0.02 1.02 0.04 2.04 0.06 3.09 0.08 3.81 0.17 7.61 0.26 11.4 0.04 1.65 0.07 3.29 0.1 4.93 0.05 2.38 0.11 4.75 0.17 7.12 0.01 0.73 0.02 1.45 0.03 2.2 0.15 5.4 0.37 11.8 3.94 16.1 5.74 3.43 10.8 4.05 17.4 3.12 3.57-1.34 4.6-2.36 6.6-5.58 1.71-4.18 1.86-7.56 1.88-12 0.02-1.21 0.02-1.21 0.04-2.45 0.05-2.56 0.08-5.13 0.1-7.69 0.04-2.58 0.08-5.16 0.13-7.73 0.02-1.61 0.05-3.21 0.06-4.81 0.08-5.49 0.08-5.49 1.19-7.71 2.47 0.49 2.47 0.49 5 1 0.1 5.41 0.17 10.8 0.22 16.2 0.02 1.84 0.05 3.68 0.08 5.51 0.05 2.66 0.07 5.31 0.09 7.96 0.02 0.81 0.04 1.62 0.06 2.46 0.01 5.75-1.26 10-4.45 14.8-2.04 1.84-2.04 1.84-4.06 2.94-0.67 0.38-1.35 0.76-2.04 1.15-6.13 2.94-13.9 3.07-20.4 1.19-4.89-2.29-8.12-5.09-10.3-10.1-2.67-7.68-2.61-15.3-2.53-23.3 0.03-2.35 0.02-4.7 0.02-7.06 0-1.49 0.01-2.99 0.02-4.49v-2.13c0.07-4.92 0.07-4.92 2.3-7.15z" fill="#EEC31D"/>
<path transform="translate(753,1330)" d="m0 0c0.99 0.33 1.98 0.66 3 1 0.81 4.91 1.08 9.51 1 14.5-0.04 5.55 0.03 11.1 0.31 16.6 0.06 1.18 0.12 2.36 0.18 3.58 0.81 5.26 2.36 8.41 6.57 11.7 4.49 2.27 9.02 2.31 13.9 1.62 3.75-1.59 5.89-3.52 8-7 1.21-4.05 1.23-8.07 1.32-12.3 0.02-0.79 0.04-1.58 0.06-2.4 0.06-2.53 0.12-5.05 0.18-7.58 0.05-1.72 0.09-3.43 0.13-5.15 0.11-4.2 0.21-8.4 0.31-12.6 1.66-0.38 3.32-0.71 5-1 2.46 2.46 1.17 8.48 1.19 11.9v2.21c0 2.19 0.02 4.38 0.03 6.57 0.09 20.7 0.09 20.7-4.28 26.7-6.78 5.91-13.1 7.17-22 6.89-3.54-0.39-6.02-1.32-8.96-3.33l-3-2v-2h-2c-4.03-9.4-3.34-19.1-3.19-29.1 0.02-1.74 0.03-3.48 0.04-5.22 0.04-4.22 0.09-8.44 0.15-12.7l2-1z" fill="#EEC31D"/>
<path transform="translate(668,1225)" d="m0 0h30l1 5c-0.58-0.01-1.16-0.02-1.76-0.03-2.64-0.04-5.28-0.07-7.93-0.09-0.91-0.02-1.82-0.04-2.76-0.06-0.89 0-1.77-0.01-2.69-0.02-0.81-0.01-1.62-0.02-2.46-0.03-2.92 0.16-2.92 0.16-7.4 2.23v15c1.48 0.04 2.96 0.07 4.49 0.11 1.94 0.07 3.88 0.14 5.82 0.2 0.98 0.03 1.96 0.05 2.96 0.07 0.94 0.04 1.88 0.07 2.84 0.11 0.87 0.02 1.73 0.05 2.62 0.08 2.7 0.51 3.64 1.25 5.27 3.43v2c-12.4 0.49-12.4 0.49-25 1-0.02 2.76-0.04 5.53-0.06 8.38-0.01 0.86-0.02 1.73-0.03 2.63-0.12 4.13-0.12 4.13 1.09 7.99 7.92 0.33 15.8 0.66 24 1l2 4c-4.54 0.02-9.08 0.04-13.6 0.05-1.54 0.01-3.09 0.02-4.63 0.03-2.22 0.01-4.44 0.01-6.65 0.02-1.04 0.01-1.04 0.01-2.11 0.01-1.66 0-3.33-0.05-4.99-0.11-1.63-1.63-1.13-3.43-1.13-5.67 0-1-0.01-1.99-0.01-3.02 0-1.08 0.01-2.16 0.01-3.27s0-2.21-0.01-3.35c0-2.34 0.01-4.68 0.01-7.02 0-3.59 0-7.18-0.01-10.8 0-2.27 0.01-4.53 0.01-6.8 0-1.08-0.01-2.16-0.01-3.28 0-0.99 0.01-1.99 0.01-3.02v-2.67c0.13-2.13 0.13-2.13 1.13-4.13z" fill="#EDC21C"/>
<path transform="translate(1080 1330)" d="m0 0c1.16 0.01 2.33 0.02 3.52 0.03 1.89 0.01 1.89 0.01 3.81 0.02 1.98 0.03 1.98 0.03 4 0.05l4.02 0.03c3.28 0.02 6.57 0.06 9.85 0.1l2 5c-0.75 0.02-1.5 0.05-2.28 0.07-3.38 0.12-6.77 0.24-10.2 0.36-1.19 0.04-2.37 0.08-3.59 0.12-1.69 0.07-1.69 0.07-3.41 0.13-1.04 0.04-2.09 0.07-3.16 0.11-2.36-0.06-2.36-0.06-3.41 1.21-0.23 2.69-0.42 5.36-0.56 8.06-0.04 0.76-0.09 1.52-0.13 2.3-0.11 1.88-0.21 3.76-0.31 5.64 8.31 1.04 16.6 1.51 25 2l1 4c-0.72 0.02-1.44 0.05-2.18 0.07l-9.75 0.36c-1.14 0.04-2.28 0.08-3.45 0.12-1.08 0.05-2.16 0.09-3.27 0.13-1 0.04-2 0.07-3.03 0.11-2.28-0.05-2.28-0.05-3.32 1.21-0.08 1.34-0.1 2.69-0.1 4.03 0.01 0.73 0.01 1.46 0.01 2.21 0.01 0.93 0.02 1.86 0.03 2.82 0.02 2.95 0.04 5.9 0.06 8.94l25 1v2h2v2c-4.54 0.02-9.08 0.04-13.6 0.05-1.55 0.01-3.09 0.01-4.64 0.02-2.22 0.01-4.43 0.02-6.65 0.02-1.04 0.01-1.04 0.01-2.11 0.02-1.66 0-3.32-0.05-4.99-0.11-1.64-1.64-1.13-3.51-1.14-5.77-0.01-1.01-0.02-2.03-0.02-3.07 0-1.1 0-2.21-0.01-3.35 0-1.69 0-1.69-0.01-3.41v-7.16c0-3.66-0.02-7.32-0.04-11 0-2.31-0.01-4.62-0.01-6.94-0.01-1.1-0.01-2.2-0.02-3.34 0-1.01 0.01-2.03 0.01-3.08v-2.72c0.4-3.52 1.62-4.12 5.04-4.4z" fill="#EEC31D"/>
<path transform="translate(830 1330)" d="m0 0h2.61c2.77 0.01 5.53 0.02 8.29 0.04 1.87 0 3.74 0 5.61 0.01 4.59 0.01 9.17 0.03 13.8 0.05 0.5 2.47 0.5 2.47 1 5-1.82 0.09-1.82 0.09-3.68 0.18-1.58 0.09-3.17 0.17-4.75 0.26-0.81 0.03-1.61 0.07-2.44 0.11-3.88-0.15-3.88-0.15-7.13 1.45-0.09 1.47-0.11 2.95-0.11 4.43v2.85c0.01 1.02 0.01 2.04 0.02 3.1v3.15c0.01 3.35 0.02 6.69 0.03 10 0.01 2.26 0.01 4.52 0.01 6.78 0.02 5.55 0.03 11.1 0.05 16.7-1.66 0.04-3.33 0.04-5 0-1.88-1.88-1.24-5.1-1.31-7.61-0.02-0.67-0.04-1.35-0.07-2.05l-0.12-4.32c-0.06-2.16-0.12-4.31-0.19-6.47-0.26-8.85-0.36-17.7-0.31-26.6-1.06-0.1-2.12-0.2-3.21-0.3-1.39-0.15-2.77-0.3-4.16-0.45-0.7-0.06-1.4-0.13-2.12-0.19-2.03-0.23-2.03-0.23-5.51-1.06-1.47-2.08-1.47-2.08-2-4 3.33-1.67 7.07-1.12 10.7-1.1z" fill="#EEC21C"/>
<path transform="translate(624 1359)" d="m0 0c1.06 0.05 1.06 0.05 2.14 0.11 4.41 0.31 7.44 1.11 11 3.77 2.57 3.42 2.44 6.84 2 11-2.8 4.6-2.8 4.6-5.89 5.62-3.43 0.61-6.88 0.48-10.4 0.44-0.75-0.01-1.5-0.01-2.26-0.02-1.83-0.01-3.66-0.03-5.5-0.04-1.87-3.99-2.29-7.24-2.31-11.6-0.01-1.13-0.03-2.25-0.05-3.41 0.36-2.96 0.36-2.96 1.39-4.87 3.17-1.76 6.36-1.26 9.85-0.97z" fill="#000002"/>
<path transform="translate(608 1224)" d="m0 0c1.51-0 1.51-0 3.05-0.01 1.07 0.01 2.14 0.01 3.25 0.02 1.08 0 2.16 0.01 3.28 0.01 5.95 0.05 11.9 0.1 17.8 0.36 1.06 0.05 2.12 0.1 3.21 0.14 2.42 0.61 2.42 0.61 3.77 2.66 0.21 0.64 0.43 1.29 0.65 1.95-2.25 2.25-8.1 1.46-11.3 1.61-3.66-0.15-3.66-0.15-6.72 1.39-0.1 1.48-0.12 2.95-0.12 4.43v2.85c0.01 1.02 0.01 2.05 0.02 3.1v3.16c0.01 3.34 0.02 6.68 0.03 10 0.01 2.26 0.01 4.51 0.02 6.77 0.01 5.56 0.03 11.1 0.05 16.7-4.88-0.87-4.88-0.87-6-2-0.13-1.44-0.18-2.89-0.21-4.33-0.02-0.92-0.04-1.85-0.06-2.79-0.02-1-0.03-2.01-0.05-3.04-0.02-1.02-0.04-2.04-0.06-3.09-0.07-3.27-0.13-6.54-0.19-9.81-0.04-2.21-0.08-4.42-0.13-6.63-0.1-5.44-0.21-10.9-0.3-16.3l-16-2-1-4c2.48-1.24 4.17-1.13 6.95-1.13z" fill="#EEC31D"/>
<path transform="translate(1086 1254)" d="m0 0c1.23-0.01 2.46-0.03 3.73-0.04 4.63 0.3 7.38 1.21 10.8 4.29 1.99 3.45 2.24 5.85 2.42 9.75-0.73 2.19-0.73 2.19-3.22 4.45-4.35 2.15-7.5 2.23-12.3 2.05-0.77-0.01-1.53-0.02-2.32-0.03-5.59-0.11-5.59-0.11-7.93-1.28-1.82-6.2-1.41-12 1-18 1.91-1.91 5.21-1.18 7.75-1.19z" fill="#000002"/>
<path transform="translate(618 1335)" d="m0 0c12.1 0.06 12.1 0.06 17.5 2.27 2.56 2.82 3.79 5.86 4.5 9.62-0.7 3.32-2.12 5-4.5 7.38-3.72 1.4-7.63 1.16-11.6 1.18-0.67 0.02-1.35 0.03-2.04 0.04-3.7 0.01-5.24-0.12-8.4-2.22-0.28-2.76-0.37-5.26-0.31-8 0-0.74-0.01-1.48-0.01-2.24 0.07-7.53 0.07-7.53 4.86-8.03z" fill="#000002"/>
<path transform="translate(1083 1229)" d="m0 0c6.05 0.1 11.7 0.36 16.6 4.25 1.93 3.93 2.33 7.63 1.44 11.9-1.92 2.45-2.96 2.99-6 4-2.5 0.17-4.94 0.27-7.44 0.31-1.98 0.06-1.98 0.06-3.99 0.11-3.57-0.42-3.57-0.42-6.02-2.17-2.53-3.67-2.06-6.96-1.55-11.2 1.91-7.15 1.91-7.15 7-7.19z" fill="#000002"/>
<path transform="translate(747,1234)" d="m0 0c2.42 2.17 3.63 4.03 4.79 7.05 0.3 0.78 0.6 1.56 0.91 2.37 0.46 1.21 0.46 1.21 0.92 2.46 0.47 1.2 0.47 1.2 0.95 2.43 1.52 3.96 2.59 7.48 3.43 11.7h-19c-1.07-5.34-0.31-7.7 1.75-12.4 0.27-0.64 0.53-1.28 0.8-1.94 1.66-3.96 3.49-7.8 5.45-11.6z" fill="#000002"/>
<path transform="translate(889,1330)" d="m0 0 2 1c1.45 8.97 1.15 18.1 1.13 27.2-0.01 2.69 0 5.38 0.01 8.07 0 1.72-0.01 3.44-0.01 5.16 0 0.8 0.01 1.6 0.01 2.43-0.02 3.55-0.18 6.72-1.14 10.1l-5-1c-0.08-7.07-0.13-14.1-0.16-21.2-0.02-2.4-0.04-4.81-0.07-7.21-0.03-3.45-0.05-6.91-0.06-10.4-0.02-1.08-0.03-2.16-0.05-3.27v-3.03c-0.01-0.88-0.01-1.76-0.02-2.67 0.43-2.7 1.27-3.57 3.36-5.26z" fill="#EEC31D"/>
</svg>
